<svg width="36" height="35" viewBox="0 0 36 35" fill="none" xmlns="http://www.w3.org/2000/svg">
<path d="M18 23.3333C21.2216 23.3333 23.8333 20.7216 23.8333 17.5C23.8333 14.2783 21.2216 11.6666 18 11.6666C14.7783 11.6666 12.1666 14.2783 12.1666 17.5C12.1666 20.7216 14.7783 23.3333 18 23.3333Z" stroke="#8F88FF" stroke-width="3" stroke-linecap="round" stroke-linejoin="round"/>
<path d="M23.8333 11.6666V18.9582C23.8333 20.1186 24.2942 21.2314 25.1147 22.0518C25.9352 22.8723 27.048 23.3332 28.2083 23.3332C29.3686 23.3332 30.4814 22.8723 31.3019 22.0518C32.1224 21.2314 32.5833 20.1186 32.5833 18.9582V17.4999C32.5831 14.2085 31.4695 11.0139 29.4235 8.43568C27.3775 5.85743 24.5195 4.04711 21.3142 3.29909C18.109 2.55107 14.7449 2.90934 11.769 4.31565C8.79317 5.72196 6.38055 8.09359 4.92347 11.0449C3.46639 13.9962 3.05055 17.3537 3.74355 20.5713C4.43655 23.789 6.19765 26.6775 8.74048 28.7674C11.2833 30.8572 14.4583 32.0254 17.7492 32.082C21.0402 32.1386 24.2535 31.0803 26.8666 29.0791" stroke="#8F88FF" stroke-width="3" stroke-linecap="round" stroke-linejoin="round"/>
</svg>
