<svg width="36" height="35" viewBox="0 0 36 35" fill="none" xmlns="http://www.w3.org/2000/svg">
<g clip-path="url(#clip0_19731_147)">
<path d="M34.0417 4.37489C32.6452 5.35997 31.0989 6.11339 29.4625 6.60614C28.5842 5.59626 27.417 4.88049 26.1186 4.55562C24.8203 4.23075 23.4535 4.31247 22.2031 4.78972C20.9527 5.26697 19.879 6.11673 19.1273 7.22406C18.3756 8.3314 17.9821 9.64288 18 10.9811V12.4395C15.4372 12.5059 12.8977 11.9375 10.6078 10.7849C8.31779 9.6323 6.34842 7.93124 4.87504 5.83323C4.87504 5.83323 -0.958292 18.9582 12.1667 24.7916C9.16331 26.8303 5.58548 27.8525 1.95837 27.7082C15.0834 34.9999 31.125 27.7082 31.125 10.9374C31.1237 10.5312 31.0846 10.126 31.0084 9.72698C32.4968 8.25915 33.5471 6.40593 34.0417 4.37489V4.37489Z" stroke="#8F88FF" stroke-width="3" stroke-linecap="round" stroke-linejoin="round"/>
</g>
<defs>
<clipPath id="clip0_19731_147">
<rect width="35" height="35" fill="white" transform="translate(0.5)"/>
</clipPath>
</defs>
</svg>
